<svg width="16" height="14" viewBox="0 0 16 14" fill="none" xmlns="http://www.w3.org/2000/svg">
<path id="Vector" d="M8.86138 13.4714C8.79939 13.4095 8.75022 13.336 8.71667 13.255C8.68313 13.1741 8.66586 13.0874 8.66586 12.9998C8.66586 12.9121 8.68313 12.8254 8.71667 12.7445C8.75022 12.6635 8.79939 12.59 8.86138 12.5281L13.7237 7.66659L0.666645 7.66659C0.489841 7.66659 0.320276 7.59636 0.195256 7.47134C0.0702362 7.34632 9.53674e-07 7.17675 9.53674e-07 6.99995C9.53674e-07 6.82314 0.0702362 6.65358 0.195256 6.52856C0.320276 6.40354 0.489841 6.3333 0.666645 6.3333L13.7237 6.3333L8.86138 1.4718C8.73629 1.34671 8.66601 1.17705 8.66601 1.00015C8.66601 0.823242 8.73629 0.653584 8.86138 0.528494C8.98647 0.403404 9.15612 0.33313 9.33303 0.33313C9.50993 0.33313 9.67959 0.403404 9.80468 0.528494L15.8045 6.5283C15.8665 6.59021 15.9156 6.66373 15.9492 6.74466C15.9827 6.82559 16 6.91234 16 6.99995C16 7.08756 15.9827 7.1743 15.9492 7.25523C15.9156 7.33616 15.8665 7.40969 15.8045 7.4716L9.80468 13.4714C9.74277 13.5334 9.66924 13.5826 9.58831 13.6161C9.50738 13.6497 9.42063 13.6669 9.33303 13.6669C9.24542 13.6669 9.15867 13.6497 9.07774 13.6161C8.99681 13.5826 8.92329 13.5334 8.86138 13.4714Z" fill="#6B7280"/>
</svg>
