<svg xmlns="http://www.w3.org/2000/svg" width="10" height="15" viewBox="0 0 10 15" fill="none">
  <path d="M2.60484 10.8707C2.60859 10.7921 2.74443 10.7607 2.78496 10.8293C2.9756 11.1508 3.29982 11.623 3.66758 11.8381C4.03533 12.0524 4.62524 12.1138 5.01251 12.1296C5.09507 12.1331 5.12734 12.2624 5.05529 12.301C4.71756 12.4825 4.22221 12.7911 3.99631 13.1412C3.7704 13.4913 3.7066 14.0529 3.69009 14.4215C3.68634 14.5001 3.54975 14.5308 3.50997 14.4622C3.31933 14.1407 2.99511 13.6692 2.6266 13.4541C2.25885 13.2391 1.66894 13.1784 1.28242 13.1626C1.19986 13.1591 1.16684 13.029 1.23889 12.9912C1.57662 12.8097 2.07272 12.5011 2.29862 12.1503C2.52378 11.8002 2.58833 11.2386 2.60484 10.8707Z" fill="white"/>
  <path opacity="0.5" d="M8.76954 10.1562C8.76278 10.0776 8.61943 10.0447 8.5759 10.1119C8.44681 10.3141 8.26068 10.557 8.05279 10.6785C7.84564 10.7999 7.53343 10.8471 7.28575 10.8656C7.2032 10.8714 7.16867 11.0085 7.23922 11.0493C7.45087 11.1721 7.7068 11.3493 7.83439 11.5472C7.96197 11.7444 8.01151 12.0423 8.03102 12.2781C8.03703 12.3567 8.18113 12.3888 8.22391 12.3217C8.353 12.1202 8.53913 11.8766 8.74702 11.7558C8.95417 11.6344 9.26713 11.5865 9.51481 11.5687C9.59736 11.5622 9.63114 11.4258 9.56059 11.3843C9.34894 11.2614 9.09301 11.0843 8.96617 10.8864C8.83858 10.6892 8.7883 10.392 8.76954 10.1562Z" fill="white"/>
  <path d="M5.92683 1.9306L5.7452 1.71198C5.04196 0.866786 4.69072 0.443833 4.28168 0.50599C3.8734 0.568861 3.67751 1.07469 3.28649 2.08706L3.18517 2.34855C3.07409 2.63647 3.01855 2.78008 2.91198 2.88581C2.8054 2.99155 2.6598 3.04656 2.3686 3.1573L2.10367 3.25804L1.91829 3.32948C1.01766 3.67242 0.564343 3.86746 0.505803 4.24612C0.44426 4.64978 0.873559 4.99557 1.73216 5.68645L1.95431 5.86506C2.19898 6.06153 2.32057 6.16012 2.39036 6.29373C2.46091 6.42733 2.47067 6.58165 2.49018 6.89029L2.5082 7.17107C2.57875 8.25703 2.61327 8.80001 2.98478 8.98719C3.35554 9.17438 3.81636 8.88217 4.738 8.29703L4.97667 8.14557C5.2386 7.97911 5.36919 7.89552 5.51929 7.87337C5.6694 7.85051 5.82025 7.89051 6.12421 7.97053L6.39966 8.04341C7.46765 8.3249 8.00127 8.46564 8.29172 8.17772C8.58293 7.8898 8.43807 7.36325 8.14912 6.31087L8.07407 6.03867C7.99226 5.73931 7.95099 5.58999 7.9735 5.4421C7.99602 5.29421 8.08007 5.16418 8.24819 4.90484L8.40055 4.66907C8.98971 3.75744 9.28466 3.30162 9.09403 2.93582C8.90265 2.57146 8.35251 2.53788 7.25225 2.47286L6.96705 2.45572C6.65483 2.43714 6.49872 2.42785 6.36288 2.35927C6.22704 2.29068 6.12722 2.17065 5.92758 1.9306" fill="white"/>
</svg>