<svg width="32" height="32" viewBox="0 0 32 32" fill="none" xmlns="http://www.w3.org/2000/svg">
<rect x="0.5" y="0.5" width="31" height="31" rx="3.5" fill="white"/>
<rect x="0.5" y="0.5" width="31" height="31" rx="3.5" stroke="#E0E0E0"/>
<path d="M9.34187 17.1987L9.34219 17.198L9.49969 16.528V16.5278C9.49969 16.5277 9.49969 16.5276 9.49969 16.5275L9.49969 13C9.49969 11.2761 10.1845 9.62279 11.4035 8.40381C12.6225 7.18482 14.2758 6.5 15.9997 6.5C17.7236 6.5 19.3769 7.18482 20.5959 8.40381C21.8149 9.62279 22.4997 11.2761 22.4997 13V16.528V16.5285C22.4999 16.7613 22.5544 16.9909 22.6587 17.199C22.6587 17.199 22.6587 17.199 22.6587 17.199L24.3744 20.6316L24.3745 20.6316C24.4202 20.7231 24.4418 20.8248 24.4372 20.927C24.4326 21.0291 24.402 21.1285 24.3482 21.2155C24.2944 21.3025 24.2193 21.3743 24.13 21.4241C24.0406 21.4739 23.94 21.5 23.8378 21.5H23.8377H8.16169H8.16161C8.05933 21.5 7.95874 21.4739 7.86939 21.4241C7.78005 21.3743 7.70492 21.3025 7.65115 21.2155C7.59737 21.1285 7.56673 21.0291 7.56213 20.927C7.55753 20.8248 7.57913 20.7231 7.62487 20.6317C7.62488 20.6317 7.62488 20.6316 7.62489 20.6316L9.34187 17.1987ZM15.9994 24.5C15.4822 24.5003 14.9777 24.3401 14.5553 24.0416C14.3412 23.8903 14.1536 23.7073 13.9981 23.5H18.0013C17.8458 23.7073 17.6582 23.8903 17.4441 24.0416C17.0217 24.3401 16.5172 24.5003 15.9999 24.5H15.9994Z" stroke="#1F2937"/>
</svg>
